<svg xmlns="http://www.w3.org/2000/svg" xmlns:xlink="http://www.w3.org/1999/xlink" width="280" height="172.141" viewBox="0 0 280 172.141"><defs><style>.a,.f{fill:none;}.b{fill:url(#a);}.c{clip-path:url(#b);}.d{opacity:0.2;}.e{clip-path:url(#c);}.f{stroke:#d9d9d9;stroke-linecap:round;stroke-width:0.6px;}</style><radialGradient id="a" cx="66.5" cy="113.733" r="332.778" gradientTransform="translate(25.617 52.325) scale(0.615 0.54)" gradientUnits="userSpaceOnUse"><stop offset="0" stop-color="#bfbfbf"/><stop offset="0.337" stop-color="#a8a8a8"/><stop offset="1" stop-color="#727272"/></radialGradient><clipPath id="b"><rect class="a" width="279.999" height="172.137"/></clipPath><clipPath id="c"><rect class="a" width="280" height="172.14"/></clipPath></defs><rect class="b" width="279.999" height="172.137" rx="10"/><g class="c"><g class="d" transform="translate(-152.463 15.205)"><path class="a" d="M747.561,568.313c26.662-30.758,129.059-133.283,316.805-141a586.162,586.162,0,0,1,161.891,15.535" transform="translate(-747.56 -426.801)"/><path class="a" d="M747.561,568.46C774.479,538,878.446,435.689,1066.353,430.551a551.2,551.2,0,0,1,159.9,18.383" transform="translate(-747.56 -426.489)"/><path class="a" d="M747.561,568.636c27.175-30.062,132.726-131.811,320.781-134.843a525.108,525.108,0,0,1,157.913,21.388" transform="translate(-747.56 -426.182)"/><path class="a" d="M747.561,568.8c27.429-29.734,134.563-131.114,322.769-131.756a498.391,498.391,0,0,1,155.928,24.306" transform="translate(-747.56 -425.885)"/><path class="a" d="M747.561,568.96c27.681-29.416,136.4-130.444,324.756-128.66a473.851,473.851,0,0,1,153.943,27.214" transform="translate(-747.56 -425.595)"/><path class="a" d="M747.56,569.122c27.929-29.11,138.247-129.8,326.744-125.558a451.335,451.335,0,0,1,151.951,30.114" transform="translate(-747.56 -425.313)"/><path class="a" d="M747.561,569.283c28.18-28.82,140.1-129.19,328.732-122.447a430.707,430.707,0,0,1,149.963,33.006" transform="translate(-747.56 -425.037)"/><path class="a" d="M747.561,569.445c28.426-28.54,141.951-128.612,330.719-119.331,59.372,2.92,109.614,18.725,147.976,35.89" transform="translate(-747.56 -424.769)"/><path class="a" d="M747.561,569.6c28.675-28.272,143.814-128.063,332.707-116.2,58.562,3.677,108.136,20.588,145.989,38.768" transform="translate(-747.56 -424.508)"/><path class="a" d="M747.561,569.769c28.919-28.017,145.681-127.553,334.695-113.076,57.754,4.424,106.657,22.44,144,41.636" transform="translate(-747.56 -424.255)"/><path class="a" d="M747.561,569.932c29.166-27.774,147.559-127.077,336.683-109.938,56.943,5.16,105.172,24.279,142.01,44.493" transform="translate(-747.56 -424.008)"/><path class="a" d="M747.561,570.1c29.412-27.543,149.449-126.638,338.67-106.795,56.135,5.888,103.694,26.111,140.024,47.345" transform="translate(-747.56 -423.768)"/><path class="a" d="M747.561,570.262c29.657-27.323,151.346-126.239,340.659-103.646,55.328,6.6,102.216,27.931,138.037,50.19" transform="translate(-747.56 -423.537)"/><path class="a" d="M747.561,570.43c29.9-27.116,153.259-125.881,342.646-100.493,54.521,7.309,100.738,29.74,136.05,53.026" transform="translate(-747.56 -423.311)"/><path class="a" d="M747.561,570.6c30.146-26.921,155.185-125.566,344.634-97.335,53.716,8,99.259,31.537,134.06,55.849" transform="translate(-747.56 -423.093)"/><path class="a" d="M747.561,570.773c30.393-26.738,157.128-125.294,346.621-94.171,52.911,8.691,97.782,33.323,132.071,58.663" transform="translate(-747.56 -422.883)"/><path class="a" d="M747.561,570.944C778.2,544.319,906.7,445.581,1096.17,479.955c52.144,9.284,96.305,35.018,130.086,61.414" transform="translate(-747.56 -422.688)"/><path class="a" d="M747.561,571.127c30.884-26.4,161.067-124.886,350.6-87.831,51.284,10.027,94.84,37.075,128.1,64.463" transform="translate(-747.56 -422.483)"/></g></g><g transform="translate(0 0)"><g class="e"><g class="d" transform="translate(-152.464 15.206)"><path class="f" d="M747.561,368.97c26.662-30.758,129.059-133.284,316.806-141a586.11,586.11,0,0,1,161.891,15.535" transform="translate(-747.56 -227.457)"/><path class="f" d="M747.561,369.117c26.918-30.463,130.885-132.772,318.793-137.91a551.165,551.165,0,0,1,159.9,18.382" transform="translate(-747.56 -227.144)"/><path class="f" d="M747.561,369.294c27.175-30.062,132.727-131.815,320.782-134.847a525.1,525.1,0,0,1,157.914,21.39" transform="translate(-747.56 -226.837)"/><path class="f" d="M747.561,369.457c27.429-29.734,134.563-131.117,322.77-131.76A498.379,498.379,0,0,1,1226.259,262" transform="translate(-747.56 -226.541)"/><path class="f" d="M747.561,369.619c27.681-29.417,136.4-130.446,324.758-128.663a473.815,473.815,0,0,1,153.943,27.214" transform="translate(-747.56 -226.251)"/><path class="f" d="M747.56,369.781c27.929-29.111,138.248-129.806,326.746-125.561a451.333,451.333,0,0,1,151.952,30.115" transform="translate(-747.56 -225.968)"/><path class="f" d="M747.561,369.941c28.18-28.82,140.1-129.193,328.733-122.449A430.7,430.7,0,0,1,1226.257,280.5" transform="translate(-747.56 -225.693)"/><path class="f" d="M747.561,370.1c28.426-28.539,141.951-128.614,330.72-119.332,59.372,2.92,109.614,18.725,147.976,35.89" transform="translate(-747.56 -225.424)"/><path class="f" d="M747.561,370.263C776.236,341.99,891.375,242.2,1080.269,254.056c58.563,3.677,108.137,20.588,145.989,38.769" transform="translate(-747.56 -225.163)"/><path class="f" d="M747.561,370.426c28.92-28.016,145.682-127.555,334.7-113.077,57.754,4.424,106.657,22.44,144,41.637" transform="translate(-747.56 -224.91)"/><path class="f" d="M747.561,370.589c29.166-27.773,147.56-127.079,336.684-109.94,56.944,5.16,105.172,24.28,142.01,44.495" transform="translate(-747.56 -224.663)"/><path class="f" d="M747.561,370.754c29.412-27.545,149.449-126.641,338.671-106.8,56.135,5.887,103.695,26.111,140.024,47.346" transform="translate(-747.56 -224.423)"/><path class="f" d="M747.561,370.92c29.657-27.325,151.347-126.242,340.66-103.648,55.328,6.6,102.216,27.931,138.038,50.191" transform="translate(-747.56 -224.191)"/><path class="f" d="M747.561,371.088c29.9-27.116,153.259-125.883,342.647-100.495,54.522,7.309,100.739,29.74,136.051,53.027" transform="translate(-747.56 -223.966)"/><path class="f" d="M747.561,371.258c30.146-26.92,155.185-125.567,344.635-97.335,53.717,8,99.26,31.538,134.06,55.85" transform="translate(-747.56 -223.748)"/><path class="f" d="M747.561,371.431c30.394-26.738,157.129-125.3,346.623-94.173,52.911,8.691,97.782,33.322,132.072,58.664" transform="translate(-747.56 -223.538)"/><path class="f" d="M747.561,371.6C778.2,344.976,906.7,246.236,1096.172,280.611c52.144,9.285,96.306,35.018,130.087,61.415" transform="translate(-747.56 -223.343)"/><path class="f" d="M747.561,371.785c30.884-26.405,161.068-124.89,350.6-87.833,51.285,10.028,94.84,37.076,128.1,64.464" transform="translate(-747.56 -223.138)"/></g></g></g></svg>